<svg xmlns="http://www.w3.org/2000/svg" width="256" height="256" viewBox="0 0 256 256">
  <rect width="256" height="256" fill="#747a78"/>
  <path d="M0 0h256v256H0z" fill="url(#g)" opacity=".28"/>
  <defs>
    <linearGradient id="g" x1="0" y1="0" x2="1" y2="1">
      <stop stop-color="#fff" stop-opacity=".25"/><stop offset="1" stop-color="#111" stop-opacity=".35"/>
    </linearGradient>
  </defs>
  <g fill="#172126" opacity=".78">
    <rect x="18" y="20" width="20" height="26"/><rect x="62" y="20" width="20" height="26"/><rect x="106" y="20" width="20" height="26"/><rect x="150" y="20" width="20" height="26"/><rect x="194" y="20" width="20" height="26"/>
    <rect x="18" y="70" width="20" height="26"/><rect x="62" y="70" width="20" height="26"/><rect x="106" y="70" width="20" height="26"/><rect x="150" y="70" width="20" height="26"/><rect x="194" y="70" width="20" height="26"/>
    <rect x="18" y="120" width="20" height="26"/><rect x="62" y="120" width="20" height="26"/><rect x="106" y="120" width="20" height="26"/><rect x="150" y="120" width="20" height="26"/><rect x="194" y="120" width="20" height="26"/>
    <rect x="18" y="170" width="20" height="26"/><rect x="62" y="170" width="20" height="26"/><rect x="106" y="170" width="20" height="26"/><rect x="150" y="170" width="20" height="26"/><rect x="194" y="170" width="20" height="26"/>
  </g>
  <g fill="#ffd77a" opacity=".55">
    <rect x="64" y="73" width="16" height="20"/><rect x="152" y="123" width="16" height="20"/><rect x="196" y="23" width="16" height="20"/><rect x="108" y="173" width="16" height="20"/>
  </g>
</svg>
